<?xml version="1.0" encoding="utf-8"?>
<!-- Generator: Adobe Illustrator 26.2.1, SVG Export Plug-In . SVG Version: 6.00 Build 0)  -->
<svg version="1.1" id="Layer_1" xmlns="http://www.w3.org/2000/svg" xmlns:xlink="http://www.w3.org/1999/xlink" x="0px" y="0px"
	 viewBox="0 0 600 300" style="enable-background:new 0 0 600 300;" xml:space="preserve">
<style type="text/css">
	.st0{fill:#FFFFFF;}
	.st1{fill:none;stroke:#000000;stroke-width:16;stroke-linecap:round;stroke-miterlimit:10;}
	.st2{fill:#FFFFFF;stroke:#000000;stroke-width:16;stroke-linecap:round;stroke-miterlimit:10;}
</style>
<g>
	<line class="st0" x1="538.5" y1="155.5" x2="77.5" y2="155.5"/>
	<g>
		<line class="st1" x1="538.5" y1="155.5" x2="100.58" y2="155.5"/>
		<g>
			<path d="M231.8,63.34c2.85,4.46,1.53,10.41-2.94,13.26l-123.89,78.9l123.89,78.9c4.47,2.85,5.79,8.79,2.94,13.26
				c-2.85,4.46-8.82,5.76-13.26,2.94l-136.6-87c-2.76-1.76-4.44-4.82-4.44-8.1s1.68-6.34,4.44-8.1l136.6-87
				c1.59-1.01,3.38-1.5,5.15-1.5C226.86,58.9,229.97,60.47,231.8,63.34z"/>
		</g>
	</g>
</g>
<path class="st2" d="M578,183"/>
</svg>
